<?xml version="1.0" standalone="no"?>
<!DOCTYPE svg PUBLIC "-//W3C//DTD SVG 20010904//EN"
 "http://www.w3.org/TR/2001/REC-SVG-20010904/DTD/svg10.dtd">
<svg version="1.0" xmlns="http://www.w3.org/2000/svg"
 width="626.000000pt" height="626.000000pt" viewBox="0 0 626.000000 626.000000"
 preserveAspectRatio="xMidYMid meet">

<g transform="translate(0.000000,626.000000) scale(0.100000,-0.100000)"
fill="#000000" stroke="none">
<path d="M3250 4564 c-407 -51 -749 -217 -1011 -491 -200 -209 -325 -448 -390
-744 -33 -150 -33 -418 0 -568 65 -296 190 -535 390 -744 233 -244 521 -398
871 -469 164 -32 426 -32 590 0 350 71 638 225 871 469 200 209 325 448 390
744 33 150 33 418 0 568 -65 296 -190 535 -390 744 -297 310 -694 483 -1131
492 -85 2 -171 1 -190 -1z m430 -58 c307 -66 554 -198 771 -415 213 -213 344
-455 412 -759 31 -140 31 -434 0 -574 -68 -304 -199 -546 -412 -759 -221 -220
-475 -355 -791 -420 -165 -34 -415 -34 -580 0 -316 65 -570 200 -791 420 -216
216 -344 455 -411 765 -31 145 -31 417 0 562 67 310 195 549 411 764 247 246
540 390 899 440 116 16 362 4 492 -24z"/>
<path d="M3108 4443 c7 -3 16 -2 19 1 4 3 -2 6 -13 5 -11 0 -14 -3 -6 -6z"/>
<path d="M3058 4433 c7 -3 16 -2 19 1 4 3 -2 6 -13 5 -11 0 -14 -3 -6 -6z"/>
<path d="M2978 4413 c7 -3 16 -2 19 1 4 3 -2 6 -13 5 -11 0 -14 -3 -6 -6z"/>
<path d="M2890 4390 c-18 -12 -2 -12 25 0 13 6 15 9 5 9 -8 0 -22 -4 -30 -9z"/>
<path d="M2815 4361 c-22 -11 -35 -19 -30 -19 14 -1 93 36 80 37 -5 0 -28 -8
-50 -18z"/>
<path d="M2708 4314 c-27 -13 -48 -27 -48 -29 0 -5 99 42 109 51 13 11 -20 0
-61 -22z"/>
<path d="M4051 4283 c0 -5 32 -30 70 -58 84 -60 211 -191 281 -289 66 -93 150
-268 183 -381 77 -265 70 -564 -18 -810 -24 -68 -89 -205 -97 -205 -5 0 -83
96 -175 213 -143 182 -172 213 -199 217 -30 5 -31 7 -31 55 l0 50 43 3 42 3 0
150 0 149 -30 0 c-27 0 -30 3 -30 34 0 20 6 36 14 39 8 3 22 20 31 38 45 86
-48 179 -133 135 -33 -17 -82 -6 -987 218 l-210 52 -3 153 c-3 174 9 161 -103
116 -129 -52 -259 -171 -318 -289 -49 -101 -65 -175 -66 -316 0 -141 8 -197
31 -202 13 -3 15 -38 14 -275 l-1 -273 36 0 35 0 0 278 0 277 161 206 161 205
235 -57 c128 -31 236 -58 238 -61 2 -2 -62 -230 -142 -506 l-147 -502 -223 0
c-214 0 -223 1 -223 19 0 14 -8 21 -27 23 -44 5 -36 33 10 33 34 0 37 2 37 28
l0 27 -110 0 c-110 0 -110 0 -110 -24 0 -21 6 -25 33 -28 37 -3 45 -31 10 -36
-16 -2 -23 -11 -25 -35 -3 -30 -5 -32 -71 -45 -38 -7 -75 -11 -82 -8 -36 13
-117 291 -133 455 -6 57 -14 106 -18 110 -15 14 5 -326 26 -421 57 -270 184
-502 380 -699 204 -204 430 -328 718 -391 130 -29 403 -31 535 -5 429 86 795
358 990 736 114 220 159 405 159 651 0 378 -132 706 -391 974 -103 105 -181
168 -292 234 -72 44 -79 47 -78 35z m-375 -734 c160 -39 297 -77 306 -86 11
-9 18 -30 18 -50 0 -29 -3 -33 -25 -33 l-25 0 0 -149 0 -150 38 -3 37 -3 3
-52 c2 -32 -1 -53 -7 -53 -7 0 -11 -59 -11 -175 l0 -176 -72 6 c-40 4 -120 10
-178 13 l-104 7 -138 480 c-136 476 -141 495 -134 495 2 0 133 -32 292 -71z
m409 21 c21 -23 14 -65 -14 -80 -21 -11 -71 2 -71 19 0 5 -3 16 -6 24 -7 19
29 57 54 57 11 0 27 -9 37 -20z m-767 -137 l20 -72 -39 -15 c-51 -20 -62 -20
-55 2 36 124 48 163 51 160 2 -2 13 -36 23 -75z m72 -236 c7 -26 11 -50 8 -52
-2 -3 -40 2 -84 10 -112 21 -124 24 -124 34 0 12 173 71 181 62 3 -3 12 -28
19 -54z m-134 -132 c38 -8 95 -19 127 -25 31 -6 57 -17 57 -23 0 -7 -53 -32
-117 -56 -65 -24 -140 -52 -166 -62 -46 -18 -48 -18 -43 -2 2 10 14 55 26 101
13 48 27 82 35 82 7 0 43 -7 81 -15z m233 -206 c7 -27 11 -53 7 -56 -3 -3 -81
-7 -173 -9 -92 -2 -163 -2 -158 1 28 15 282 113 296 114 10 1 19 -15 28 -50z
m61 -184 l0 -25 -255 0 -255 0 0 25 0 25 255 0 255 0 0 -25z m31 -183 c25 -28
29 -40 29 -92 0 -60 0 -60 30 -60 16 0 41 -5 55 -12 45 -20 55 -55 55 -187 0
-118 -1 -121 -28 -152 -24 -27 -36 -32 -94 -36 l-66 -6 -4 -49 c-4 -36 -12
-57 -32 -76 -26 -26 -29 -27 -152 -27 l-126 0 -29 33 c-25 28 -29 40 -29 92 0
60 0 60 -30 60 -16 0 -41 5 -55 12 -45 20 -55 55 -55 187 0 118 1 121 28 152
24 27 36 32 94 36 l66 6 4 48 c5 50 26 84 63 100 11 5 71 8 133 6 l114 -2 29
-33z"/>
<path d="M3313 2490 c-31 -13 -43 -41 -43 -104 l0 -56 -79 0 c-107 0 -111 -5
-111 -161 0 -115 1 -118 26 -138 18 -14 41 -21 70 -21 l44 0 0 -70 c0 -62 3
-74 25 -95 23 -23 31 -25 130 -25 99 0 107 2 130 25 21 20 25 34 25 85 l0 60
79 0 c107 0 111 5 111 161 0 115 -1 118 -26 138 -18 14 -41 21 -70 21 l-44 0
0 69 c0 106 -12 115 -142 118 -56 2 -113 -2 -125 -7z m225 -32 c17 -17 17
-259 0 -276 -8 -8 -56 -12 -149 -12 -131 0 -139 -1 -153 -22 -9 -12 -16 -42
-16 -66 l0 -43 -52 3 -53 3 -3 119 c-2 78 1 123 9 132 9 11 46 14 165 14 96 0
154 4 154 10 0 6 -30 10 -70 10 l-70 0 0 58 c0 32 5 63 12 70 8 8 48 12 113
12 65 0 105 -4 113 -12z m148 -189 c12 -19 6 -229 -7 -245 -9 -11 -44 -14
-165 -14 -96 0 -154 -4 -154 -10 0 -12 5 -12 83 -10 l57 1 0 -58 c0 -33 -5
-64 -12 -71 -16 -16 -210 -16 -226 0 -8 8 -12 54 -12 140 0 116 2 128 19 138
11 5 78 10 150 10 123 0 131 1 145 22 9 12 16 42 16 65 l0 43 49 0 c28 0 53
-5 57 -11z"/>
<path d="M3414 2408 c1 -24 8 -38 29 -50 29 -19 35 -46 15 -66 -8 -8 -59 -12
-165 -12 l-153 0 0 -105 c0 -104 0 -105 24 -105 20 0 24 6 29 42 4 29 14 50
32 65 24 21 36 23 161 23 l134 0 0 120 0 120 -54 0 -54 0 2 -32z"/>
<path d="M3347 2423 c-15 -14 -7 -43 12 -43 26 0 36 17 21 35 -14 16 -23 19
-33 8z"/>
<path d="M3610 2214 c0 -26 -8 -43 -29 -65 l-29 -29 -136 0 -136 0 0 -120 0
-120 53 0 53 0 0 33 c0 27 -6 37 -28 50 -31 18 -36 38 -12 61 13 13 42 16 165
16 l149 0 0 105 0 105 -25 0 c-22 0 -25 -4 -25 -36z"/>
<path d="M3414 1929 c-8 -14 21 -43 35 -35 19 12 13 46 -8 46 -11 0 -23 -5
-27 -11z"/>
<path d="M2548 4218 c-52 -35 -139 -108 -198 -166 l-105 -105 106 100 c58 55
148 128 200 162 101 68 105 71 96 71 -3 0 -47 -28 -99 -62z"/>
<path d="M2224 3918 l-19 -23 23 19 c21 18 27 26 19 26 -2 0 -12 -10 -23 -22z"/>
<path d="M2189 3873 c-13 -16 -12 -17 4 -4 9 7 17 15 17 17 0 8 -8 3 -21 -13z"/>
<path d="M2180 2226 c0 -2 8 -10 18 -17 15 -13 16 -12 3 4 -13 16 -21 21 -21
13z"/>
<path d="M2225 2170 c10 -11 20 -20 23 -20 3 0 -3 9 -13 20 -10 11 -20 20 -23
20 -3 0 3 -9 13 -20z"/>
<path d="M2325 2061 c44 -45 118 -111 164 -146 79 -59 256 -165 277 -165 5 0
-34 24 -87 53 -134 74 -218 136 -334 246 l-100 95 80 -83z"/>
<path d="M2800 1736 c14 -7 36 -16 50 -20 14 -3 7 3 -15 13 -45 22 -73 27 -35
7z"/>
<path d="M2890 1700 c8 -5 22 -9 30 -9 10 0 8 3 -5 9 -27 12 -43 12 -25 0z"/>
<path d="M2978 1673 c7 -3 16 -2 19 1 4 3 -2 6 -13 5 -11 0 -14 -3 -6 -6z"/>
<path d="M3058 1653 c7 -3 16 -2 19 1 4 3 -2 6 -13 5 -11 0 -14 -3 -6 -6z"/>
<path d="M3108 1643 c7 -3 16 -2 19 1 4 3 -2 6 -13 5 -11 0 -14 -3 -6 -6z"/>
</g>
</svg>
